<svg xmlns="http://www.w3.org/2000/svg" xmlns:xlink="http://www.w3.org/1999/xlink" version="1.1" width="256" height="256" viewBox="0 0 256 256" xml:space="preserve">
<g style="stroke: none; stroke-width: 0; stroke-dasharray: none; stroke-linecap: butt; stroke-linejoin: miter; stroke-miterlimit: 10; fill: none; fill-rule: nonzero; opacity: 1;" transform="translate(1.4065934065934016 1.4065934065934016) scale(2.81 2.81)">
	<path d="M 90 90 H 45 C 20.147 90 0 69.853 0 45 v 0 C 0 20.147 20.147 0 45 0 h 0 c 24.853 0 45 20.147 45 45 V 90 z" style="stroke: none; stroke-width: 1; stroke-dasharray: none; stroke-linecap: butt; stroke-linejoin: miter; stroke-miterlimit: 10; fill: rgb(65,118,250); fill-rule: nonzero; opacity: 1;" transform=" matrix(1 0 0 1 0 0) " stroke-linecap="round"/>
	<path d="M 22.112 11.862 H 18.01 v -1.019 h 4.102 L 22.112 11.862 L 22.112 11.862 z M 15.28 16.04 c 0.265 0.41 0.397 0.908 0.397 1.492 c 0 0.604 -0.149 1.146 -0.453 1.625 c -0.193 0.317 -0.433 0.585 -0.72 0.8 c -0.324 0.249 -0.708 0.42 -1.15 0.511 c -0.443 0.092 -0.922 0.138 -1.438 0.138 H 7.329 V 10.421 h 4.919 c 1.24 0.02 2.119 0.379 2.638 1.085 c 0.311 0.433 0.466 0.952 0.466 1.555 c 0 0.623 -0.156 1.121 -0.471 1.5 c -0.175 0.212 -0.433 0.405 -0.776 0.58 C 14.624 15.33 15.017 15.629 15.28 16.04 z M 9.678 14.437 h 2.155 c 0.443 0 0.801 -0.084 1.077 -0.252 c 0.276 -0.168 0.413 -0.467 0.413 -0.896 c 0 -0.474 -0.182 -0.788 -0.547 -0.94 c -0.314 -0.105 -0.715 -0.159 -1.202 -0.159 H 9.678 V 14.437 z M 13.531 17.387 c 0 -0.529 -0.216 -0.895 -0.648 -1.091 c -0.241 -0.111 -0.582 -0.169 -1.019 -0.173 H 9.678 v 2.715 h 2.152 c 0.442 0 0.784 -0.058 1.031 -0.179 C 13.307 18.437 13.531 18.014 13.531 17.387 z M 23.634 15.73 c 0.049 0.333 0.072 0.817 0.063 1.449 h -5.312 c 0.029 0.733 0.282 1.246 0.762 1.54 c 0.29 0.184 0.641 0.274 1.052 0.274 c 0.433 0 0.787 -0.109 1.059 -0.335 c 0.148 -0.119 0.279 -0.288 0.392 -0.501 h 1.947 c -0.051 0.433 -0.285 0.872 -0.707 1.319 c -0.653 0.709 -1.568 1.065 -2.744 1.065 c -0.971 0 -1.827 -0.3 -2.57 -0.898 c -0.74 -0.6 -1.112 -1.573 -1.112 -2.923 c 0 -1.266 0.334 -2.235 1.004 -2.909 c 0.672 -0.676 1.54 -1.012 2.61 -1.012 c 0.634 0 1.206 0.113 1.716 0.341 c 0.508 0.228 0.929 0.587 1.259 1.08 C 23.352 14.655 23.544 15.157 23.634 15.73 z M 21.717 15.92 c -0.036 -0.507 -0.205 -0.891 -0.51 -1.153 c -0.302 -0.263 -0.68 -0.395 -1.131 -0.395 c -0.49 0 -0.869 0.141 -1.138 0.419 c -0.271 0.277 -0.439 0.653 -0.509 1.13 L 21.717 15.92 L 21.717 15.92 z" style="stroke: none; stroke-width: 1; stroke-dasharray: none; stroke-linecap: butt; stroke-linejoin: miter; stroke-miterlimit: 10; fill: rgb(255,255,255); fill-rule: nonzero; opacity: 1;" transform=" matrix(2.81 0 0 2.81 1.4065934065934016 1.4065934065934016) " stroke-linecap="round"/>
</g>
</svg>