<svg xmlns="http://www.w3.org/2000/svg" xmlns:xlink="http://www.w3.org/1999/xlink" version="1.1" width="256" height="256" viewBox="0 0 256 256" xml:space="preserve">
<g style="stroke: none; stroke-width: 0; stroke-dasharray: none; stroke-linecap: butt; stroke-linejoin: miter; stroke-miterlimit: 10; fill: none; fill-rule: nonzero; opacity: 1;" transform="translate(1.4065934065934016 1.4065934065934016) scale(2.81 2.81)">
	<path d="M 90 90 H 45 C 20.147 90 0 69.853 0 45 v 0 C 0 20.147 20.147 0 45 0 h 0 c 24.853 0 45 20.147 45 45 V 90 z" style="stroke: none; stroke-width: 1; stroke-dasharray: none; stroke-linecap: butt; stroke-linejoin: miter; stroke-miterlimit: 10; fill: rgb(59,66,73); fill-rule: nonzero; opacity: 1;" transform=" matrix(1 0 0 1 0 0) " stroke-linecap="round"/>
	<path d="M 8.478 18.772 c 0 0 0.711 0.334 1.205 1.588 c 0 0 0.637 1.937 3.657 1.281 c 0.003 0.576 0.008 1.131 0.011 1.525 c 0.002 0.197 0.162 0.355 0.359 0.355 h 4.669 c 0.198 0 0.358 -0.158 0.359 -0.356 c 0.004 -0.556 0.01 -1.447 0.01 -2.482 c 0 -1.013 -0.347 -1.673 -0.736 -2.01 c 2.417 -0.269 4.956 -1.186 4.956 -5.355 c 0 -1.185 -0.421 -2.153 -1.117 -2.913 c 0.113 -0.273 0.484 -1.377 -0.107 -2.872 c 0 0 -0.91 -0.291 -2.982 1.113 c -0.867 -0.241 -1.797 -0.361 -2.719 -0.365 c -0.922 0.004 -1.851 0.125 -2.717 0.365 c -2.074 -1.404 -2.985 -1.113 -2.985 -1.113 c -0.589 1.495 -0.218 2.599 -0.105 2.872 c -0.694 0.76 -1.118 1.728 -1.118 2.913 c 0 4.159 2.534 5.089 4.945 5.364 c -0.31 0.271 -0.592 0.75 -0.689 1.451 c -0.619 0.277 -2.191 0.757 -3.159 -0.902 c 0 0 -0.574 -1.042 -1.664 -1.119 C 8.552 18.112 7.493 18.098 8.478 18.772 z" style="stroke: none; stroke-width: 1; stroke-dasharray: none; stroke-linecap: butt; stroke-linejoin: miter; stroke-miterlimit: 10; fill: rgb(255,255,255); fill-rule: nonzero; opacity: 1;" transform=" matrix(2.81 0 0 2.81 1.4065934065934016 1.4065934065934016) " stroke-linecap="round"/>
</g>
</svg>